:FULLY-SPECIFIED
:DEGREES
32
root 8.720709800720215 17.408802032470703 -10.75790023803711 90.00000933466734 -0.0 -0.0
lhipjoint -5.528973971617621e-07 -1.7075472925031877e-06 5.635377011264426e-07
lfemur 13.586993080035592 23.427980862608738 4.731622939036442
ltibia 16.530130131130548 -6.981578178531968 5.559054680093412
lfoot -15.867058781600296 1.7474811674244308 4.878736676022054
ltoes -9.169855956048632 3.844369839907561 3.0730991158576093
rhipjoint -1.4590168159163821e-06 -1.2806604693773908e-06 -1.1362305144035093e-07
rfemur -21.67101202881863 -21.469162863371828 9.42014140799458
rtibia 12.840692460374148 5.26885488329838 -4.4787625057734
rfoot -11.968549020349807 15.747960773042784 -4.809850376261068
rtoes 6.635922795205133 2.405032336723138 2.537625731863538
lowerback 6.5856961453697975 5.950618326152842 -1.335601230400504
upperback 0.7299535757392226 -1.7241918231802742 -2.1581696633250136
thorax -2.7023024465261916 -5.335981128687619 -1.0044435639172555
lowerneck -18.466399968369956 9.98411098153618 -4.090661338736344
upperneck 20.977472912948244 -5.69829192830553 -4.1740310546323425
head 9.907306358093031 -3.089536392982068 -2.0765010914191713
lclavicle -1.1905593500282093e-07 5.336085289072462e-08 1.7916324053945998e-07
lhumerus -82.72141824564325 -21.000753612734233 -9.304318475144088
lradius 6.088302374011991e-08 -3.347613087107451e-06 29.50932004485234
lwrist -5.371094290562267e-07 -7.352423726404633 7.340801627017642e-07
lhand -24.836992539321717 -6.634361243206138 -14.015347540059295
lfingers -9.414104972780149e-07 5.958838404591767e-07 7.125023250159637
lthumb -46.61942202897618 -33.81997195835786 26.459155637010575
rclavicle -2.343282567121354e-08 -1.5207843073856516e-06 -8.563986979746117e-08
rhumerus -72.3511625193804 28.93800204153745 30.64643725863274
rradius 9.917154732307895e-07 5.244286847634189e-07 -26.573300050872536
rwrist -4.887130912455798e-07 10.098093178405351 4.266829368484964e-07
rhand 13.011199595267055 -3.181044279274137 13.503560611776594
rfingers -4.6239122781278693e-07 1.3831930793101032e-07 -7.125021115725521
rthumb -7.826223703844663 15.985912610894982 -11.017481036918673
33
root 8.556010246276855 17.392099380493164 -10.20479965209961 90.00000933466734 -0.0 -0.0
lhipjoint -5.528973971617621e-07 -1.7075472925031877e-06 5.635377011264426e-07
lfemur 16.105473364768763 22.912643089731276 4.593451627221669
ltibia 15.454076516077354 -6.473978583097307 5.254502521418067
lfoot -15.151142258461656 1.139880558908202 4.702519076096195
ltoes -9.693930394648188 4.080711887549751 3.2316192687571426
rhipjoint -1.4590168159163821e-06 -1.2806604693773908e-06 -1.1362305144035093e-07
rfemur -20.499267463493556 -20.525473191791605 9.517828481051394
rtibia 9.710895730772853 3.8806163731723498 -3.4852399874521716
rfoot -12.119064191542085 18.57635235362882 -5.1950461515799295
rtoes 1.733594859233266 0.660408002640771 0.6396703743818487
lowerback 6.3248209120025685 6.397211098807772 -1.4894462255348695
upperback 0.6151783832352408 -1.5577349904651858 -2.3864352257170744
thorax -2.63741009988237 -5.426058944122216 -1.1135025817770243
lowerneck -18.191768307127496 9.937521407433875 -4.029286539515079
upperneck 21.018722132893245 -5.278636141076661 -4.0306231221582856
head 9.862451652039912 -2.9545654516802693 -2.061154937014622
lclavicle -1.1905593500282093e-07 5.336085289072462e-08 1.7916324053945998e-07
lhumerus -82.57781351834373 -20.61234978293958 -8.679770246306354
lradius 2.94633787138742e-07 -7.065801200372074e-07 29.84551561617871
lwrist -5.259499059009068e-07 -7.206693956499595 7.193299714221341e-07
lhand -25.78556408861121 -6.834468283527764 -13.837856536740052
lfingers -9.414104972780149e-07 5.958838404591767e-07 7.125023250159637
lthumb -47.72278444787838 -34.10672037518792 27.145507686326816
rclavicle -2.343282567121354e-08 -1.5207843073856516e-06 -8.563986979746117e-08
rhumerus -71.82523795328942 28.65152000208502 31.725504694657207
rradius -2.5670760952009057e-08 1.1756674586764106e-06 -25.901702917710814
rwrist -5.588278339763816e-07 11.624998189060982 4.790265974632141e-07
rhand 12.681222911179985 -2.946209569004405 12.86684696225342
rfingers -4.6239122781278693e-07 1.3831930793101032e-07 -7.125021115725521
rthumb -7.93694107029057 16.429543642771065 -11.617328740396703
34
root 8.372099876403809 17.355899810791016 -9.642350196838379 90.00000933466734 -0.0 -0.0
lhipjoint -5.528973971617621e-07 -1.7075472925031877e-06 5.635377011264426e-07
lfemur 17.555771827467176 22.115054579592208 4.963750759960734
ltibia 16.402099942685954 -6.920846697753153 5.523284979410056
lfoot -14.825106593525682 0.8298140363342768 4.621602251885877
ltoes -16.44049755865247 7.263020819037398 5.088890497725945
rhipjoint -1.4590168159163821e-06 -1.2806604693773908e-06 -1.1362305144035093e-07
rfemur -21.326591202184275 -23.27271700239601 6.202058933842168
rtibia 12.753512779581753 5.229354618667727 -4.452024449606916
rfoot -8.43990937058114 16.95091418023294 -3.8015223556967785
rtoes -1.790363976519827 -0.7050730642227173 -0.6421043229647533
lowerback 6.079151814161904 6.250126817012956 -1.3190469862865086
upperback 0.4383536968860434 -1.3948282552929174 -2.142417752995083
thorax -2.7206479077500227 -5.146389591480052 -0.9865274441157831
lowerneck -17.984297895993773 9.717871915236374 -3.9613257303866285
upperneck 21.380991951376135 -5.108751407171873 -3.9946715676882767
head 9.94739188455819 -2.8683795634121094 -2.0556769118568603
lclavicle -1.1905593500282093e-07 5.336085289072462e-08 1.7916324053945998e-07
lhumerus -81.96631351214165 -20.67668333473193 -9.447709759032044
lradius -8.322461255012017e-07 -3.1787876161713704e-06 30.110509880502278
lwrist -5.660500848804242e-07 -7.72886191854707 7.722356233268477e-07
lhand -24.519287997625867 -6.664644594438682 -14.275346374778648
lfingers -9.414104972780149e-07 5.958838404591767e-07 7.125023250159637
lthumb -46.276724117559965 -33.76796006782821 26.033807313995325
rclavicle -2.343282567121354e-08 -1.5207843073856516e-06 -8.563986979746117e-08
rhumerus -71.67478254625237 28.784503785225173 32.4433234254797
rradius -4.274595774128349e-07 1.0784493520609241e-06 -25.46070492375977
rwrist -5.578639986857109e-07 11.60390229603575 4.783241274340473e-07
rhand 12.839681592376987 -3.032607193136835 13.067789420087903
rfingers -4.6239122781278693e-07 1.3831930793101032e-07 -7.125021115725521
rthumb -7.854190767174926 16.25847813991351 -11.412056796402078
35
root 8.162110328674316 17.389799118041992 -9.047089576721191 90.00000933466734 -0.0 -0.0
lhipjoint -5.528973971617621e-07 -1.7075472925031877e-06 5.635377011264426e-07
lfemur 18.939192492907406 21.22689776105877 4.105864059168322
ltibia 17.71332550859915 -7.547006424348188 5.883635941622996
lfoot -12.910638720116957 -0.5501042361656203 4.128773367418192
ltoes -19.740689578799014 8.903309531236177 5.865937640823024
rhipjoint -1.4590168159163821e-06 -1.2806604693773908e-06 -1.1362305144035093e-07
rfemur -20.81608066550272 -24.861205559929413 4.331624009352047
rtibia 16.222609401487187 6.835855665702923 -5.4729221526781435
rfoot -8.60616727403665 15.853010790024873 -3.7403708182840085
rtoes -1.873320892857863 -0.738299213131332 -0.6713888123920358
lowerback 5.133894187280336 5.3889253400389725 -1.2673154536779494
upperback 1.2984804329219541 -1.0286573315768912 -1.952888541263692
thorax -1.3525891915267951 -4.212044899344871 -0.9664048530472793
lowerneck -18.765497367219396 9.51313955618618 -4.100268853577613
upperneck 21.60148753325707 -5.432937371503242 -4.2579373672650105
head 10.17969857106137 -2.9095839602406808 -2.112843460775751
lclavicle -1.1905593500282093e-07 5.336085289072462e-08 1.7916324053945998e-07
lhumerus -81.42991826605305 -20.044008034555528 -10.160043847951014
lradius -1.2565244866771993e-06 -1.2920051262596095e-06 30.70632094218083
lwrist -5.595339171156665e-07 -7.644291370017618 7.636569294622545e-07
lhand -25.89631048336109 -7.004791857086726 -14.10050292353643
lfingers -9.414104972780149e-07 5.958838404591767e-07 7.125023250159637
lthumb -47.88823895033277 -34.21300836395707 26.94628302106859
rclavicle -2.343282567121354e-08 -1.5207843073856516e-06 -8.563986979746117e-08
rhumerus -72.26848307947739 27.80045452583934 33.63851090758355
rradius 2.042016102138763e-07 3.206322008826487e-07 -25.21939434038322
rwrist -5.663358259130069e-07 11.789399988609542 4.844828008526086e-07
rhand 13.993664250765445 -3.1827588701992218 12.559679694899607
rfingers -4.6239122781278693e-07 1.3831930793101032e-07 -7.125021115725521
rthumb -6.702842427371979 15.78325919067341 -11.48036893338596
